<?xml version="1.0" standalone="no"?>
<!DOCTYPE svg PUBLIC "-//W3C//DTD SVG 20010904//EN"
 "http://www.w3.org/TR/2001/REC-SVG-20010904/DTD/svg10.dtd">
<svg version="1.0" xmlns="http://www.w3.org/2000/svg"
 width="273.000000pt" height="252.000000pt" viewBox="0 0 273.000000 252.000000"
 preserveAspectRatio="xMidYMid meet">

<g transform="translate(0.000000,252.000000) scale(0.100000,-0.100000)"
fill="#000000" stroke="none">
<path d="M1431 2479 c-456 -48 -811 -400 -872 -864 -30 -233 39 -495 182 -689
l29 -40 -350 -351 -350 -351 0 -43 c0 -60 41 -101 101 -101 l43 0 351 350 351
350 40 -29 c297 -219 704 -249 1031 -76 522 276 683 921 357 1422 -48 73 -181
207 -257 256 -142 94 -296 149 -468 167 -56 5 -102 9 -103 9 0 -1 -39 -6 -85
-10z m257 -215 c517 -107 778 -679 521 -1144 -29 -52 -70 -103 -134 -167 -80
-80 -105 -97 -196 -141 -140 -68 -227 -86 -383 -80 -96 4 -138 11 -201 32
-243 82 -419 258 -501 501 -21 63 -28 105 -32 201 -6 156 12 243 80 383 44 91
61 116 141 196 64 64 115 105 167 134 72 39 201 85 265 94 73 10 202 6 273 -9z"/>
<path d="M1714 1972 c-16 -10 -276 -730 -269 -742 4 -6 24 -10 46 -10 37 0 41
3 58 44 11 24 27 69 37 100 l18 56 160 -2 160 -3 30 -85 c17 -47 35 -91 39
-97 5 -7 28 -13 53 -13 34 0 44 4 44 16 0 17 -243 692 -261 726 -7 13 -21 18
-57 18 -26 0 -52 -4 -58 -8z m115 -282 c34 -96 61 -178 61 -182 0 -4 -58 -8
-129 -8 l-130 0 54 158 c62 184 74 216 80 211 2 -3 31 -83 64 -179z"/>
<path d="M1153 1718 c-10 -12 -168 -445 -175 -478 -2 -10 7 -16 29 -18 31 -3
32 -2 53 67 l21 71 107 0 108 0 23 -70 c21 -65 24 -70 51 -70 16 0 31 4 34 8
2 4 -35 118 -83 252 l-89 245 -34 3 c-20 2 -39 -3 -45 -10z m83 -191 l41 -112
-85 -3 c-46 -2 -86 -1 -88 1 -6 6 79 238 85 232 3 -4 24 -57 47 -118z"/>
<path d="M2287 710 c-58 -15 -114 -47 -158 -91 -127 -127 -127 -331 1 -459 67
-67 138 -95 240 -94 66 0 96 5 134 22 80 36 131 85 168 160 63 127 39 271 -62
372 -57 57 -132 90 -217 95 -37 2 -85 0 -106 -5z m170 -55 c154 -46 238 -211
183 -359 -74 -196 -332 -248 -479 -96 -45 47 -81 131 -81 190 0 109 84 224
192 261 65 22 119 24 185 4z"/>
<path d="M2350 475 l0 -65 -65 0 c-63 0 -65 -1 -65 -25 0 -24 2 -25 65 -25
l65 0 0 -60 c0 -57 1 -60 25 -60 24 0 25 3 25 60 l0 60 70 0 c68 0 70 1 70 25
0 24 -2 25 -70 25 l-70 0 0 65 c0 63 -1 65 -25 65 -24 0 -25 -2 -25 -65z"/>
</g>
</svg>
