<?xml version="1.0" standalone="no"?>
<!DOCTYPE svg PUBLIC "-//W3C//DTD SVG 20010904//EN"
 "http://www.w3.org/TR/2001/REC-SVG-20010904/DTD/svg10.dtd">
<svg version="1.0" xmlns="http://www.w3.org/2000/svg"
 width="1194.000000pt" height="1280.000000pt" viewBox="0 0 1194.000000 1280.000000"
 preserveAspectRatio="xMidYMid meet">
<metadata>
Created by potrace 1.15, written by Peter Selinger 2001-2017
</metadata>
<g transform="translate(0.000000,1280.000000) scale(0.100000,-0.100000)"
fill="#000000" stroke="none">
<path d="M5133 12785 c-133 -24 -312 -97 -403 -163 -206 -152 -327 -297 -432
-519 -85 -180 -105 -271 -172 -763 l-44 -325 -50 -100 c-78 -156 -1781 -3810
-1818 -3902 -41 -99 -73 -212 -88 -310 l-11 -72 -540 -4 c-508 -4 -546 -6
-638 -26 -248 -55 -432 -155 -604 -328 -154 -156 -253 -338 -309 -573 -17 -71
-19 -184 -22 -1985 -2 -1404 0 -1935 8 -2005 53 -434 352 -808 762 -957 40
-14 113 -35 163 -46 87 -20 124 -21 999 -24 l908 -4 92 -73 c245 -197 534
-341 835 -416 265 -66 203 -63 1556 -67 l1230 -4 74 -30 c90 -36 198 -64 306
-79 57 -8 462 -10 1395 -8 1225 4 1320 5 1390 22 237 57 422 157 580 316 132
131 221 275 279 448 136 407 37 856 -256 1163 l-72 75 84 12 c47 7 126 26 176
42 498 163 818 623 796 1144 -7 157 -25 248 -78 380 -61 154 -141 275 -253
388 l-57 57 38 6 c373 63 686 288 851 613 57 112 84 185 107 297 118 562 -209
1138 -750 1326 -89 30 -227 59 -286 59 -21 0 -39 1 -39 3 0 2 23 28 51 58 97
105 185 252 232 390 47 137 60 241 54 464 -5 243 -26 338 -112 510 -146 296
-410 501 -745 581 -70 17 -181 18 -1695 22 -1124 2 -1653 0 -1727 -8 -133 -13
-255 -47 -375 -106 l-93 -44 -261 0 -261 0 6 33 c3 17 69 493 146 1057 78 564
172 1250 210 1525 38 275 74 550 81 610 19 179 -4 390 -62 568 -115 355 -366
625 -684 735 -139 49 -327 63 -472 37z"/>
</g>
</svg>
