<?xml version="1.0" standalone="no"?>
<!DOCTYPE svg PUBLIC "-//W3C//DTD SVG 20010904//EN"
 "http://www.w3.org/TR/2001/REC-SVG-20010904/DTD/svg10.dtd">
<svg version="1.0" xmlns="http://www.w3.org/2000/svg"
 width="517.000000pt" height="112.000000pt" viewBox="0 0 517.000000 112.000000"
 preserveAspectRatio="xMidYMid meet">

<g transform="translate(0.000000,112.000000) scale(0.100000,-0.100000)"
fill="#000000" stroke="none">
<path d="M54 1088 c29 -161 42 -723 17 -767 -7 -13 -13 -40 -13 -60 1 -20 -10
-78 -24 -129 -13 -52 -24 -97 -24 -102 0 -14 99 -23 115 -10 11 9 32 9 90 -1
67 -10 77 -10 94 5 16 14 27 15 95 4 91 -14 96 -10 96 65 0 66 -22 113 -82
174 l-51 52 34 40 c36 42 49 49 49 28 0 -26 61 -99 95 -113 51 -21 4039 -21
4090 0 34 14 95 87 95 113 0 21 13 14 49 -28 l34 -40 -51 -52 c-60 -61 -82
-108 -82 -174 0 -75 5 -79 96 -65 68 11 79 10 95 -4 17 -15 27 -15 94 -5 58
10 79 10 90 1 16 -13 115 -4 115 10 0 5 -11 50 -24 102 -14 51 -25 109 -24
129 0 20 -6 47 -13 60 -25 44 -12 606 17 767 l6 32 -2542 0 -2542 0 6 -32z
m536 -32 c0 -28 -42 -255 -66 -356 -33 -143 -69 -213 -154 -300 -56 -57 -74
-69 -85 -60 -11 9 -2 27 49 103 111 162 136 229 176 466 14 85 18 127 11 134
-6 6 -12 9 -14 6 -2 -2 -16 -73 -31 -158 -41 -228 -56 -266 -171 -439 -27 -40
-53 -70 -59 -68 -6 3 -34 12 -63 21 l-51 16 5 52 c5 53 -12 476 -23 555 l-6
42 241 0 c197 0 241 -2 241 -14z m3974 -153 c31 -186 64 -312 101 -389 34 -70
33 -123 -2 -156 -16 -14 -38 -31 -50 -37 -31 -16 -4015 -16 -4046 0 -12 6 -34
23 -49 37 -36 33 -37 86 -3 156 37 77 70 203 101 389 l29 167 1945 0 1945 0
29 -167z m502 125 c-11 -79 -28 -502 -23 -555 l5 -52 -51 -16 c-29 -9 -57 -18
-63 -21 -6 -2 -32 28 -59 68 -115 173 -130 211 -171 439 -15 85 -29 156 -31
158 -2 3 -8 0 -14 -6 -7 -7 -3 -49 11 -134 40 -237 65 -304 176 -466 51 -76
60 -94 49 -103 -11 -9 -29 3 -85 60 -85 87 -121 157 -154 300 -24 101 -66 328
-66 356 0 12 44 14 241 14 l241 0 -6 -42z m-4858 -639 c37 -14 213 -190 233
-234 33 -72 19 -129 -30 -119 -72 14 -68 9 -73 79 -3 36 -13 76 -21 89 -18 27
-123 89 -137 81 -18 -11 -10 -20 46 -49 66 -35 84 -67 84 -151 0 -68 -6 -71
-101 -55 -52 9 -74 9 -82 1 -12 -12 -60 -15 -70 -4 -4 3 -3 11 2 17 21 25 71
276 71 353 0 14 27 11 78 -8z m4842 8 c0 -77 50 -328 71 -353 5 -6 6 -14 2
-17 -10 -11 -58 -8 -70 4 -8 8 -30 8 -82 -1 -95 -16 -101 -13 -101 55 0 84 18
116 84 151 56 29 64 38 46 49 -14 8 -119 -54 -137 -81 -8 -13 -18 -53 -21 -89
-5 -70 -1 -65 -73 -79 -49 -10 -63 47 -30 119 27 59 202 224 254 241 54 16 57
16 57 1z"/>
<path d="M322 1009 c-1 -31 -4 -85 -7 -120 l-4 -64 10 60 c5 33 8 87 6 120
l-3 60 -2 -56z"/>
<path d="M210 925 c-7 -52 -10 -119 -6 -148 11 -88 28 -178 32 -174 3 2 -3 51
-12 108 -15 89 -15 118 -5 203 7 54 10 100 8 102 -2 3 -10 -38 -17 -91z"/>
<path d="M4851 994 c0 -38 4 -91 9 -119 5 -32 6 -9 2 65 -5 128 -12 161 -11
54z"/>
<path d="M4956 975 c3 -27 7 -77 10 -110 4 -35 -1 -101 -10 -159 -9 -54 -15
-101 -12 -103 6 -6 27 122 32 197 3 37 -2 99 -10 145 -9 46 -13 59 -10 30z"/>
<path d="M161 178 c15 -14 34 -49 43 -83 10 -31 19 -55 21 -53 5 5 -20 90 -35
117 -6 11 -20 26 -33 32 -19 10 -18 8 4 -13z"/>
<path d="M5011 182 c-21 -16 -66 -130 -57 -140 3 -2 12 22 22 53 9 33 27 68
42 82 29 27 24 31 -7 5z"/>
</g>
</svg>
