<?xml version="1.0" encoding="UTF-8" standalone="no"?>
<svg
   version="1.0"
   width="47.000000pt"
   height="43.000000pt"
   viewBox="0 0 47.000000 43.000000"
   preserveAspectRatio="xMidYMid meet"
   id="svg23"
   sodipodi:docname="seatUnavailable.svg"
   inkscape:version="1.2.2 (732a01da63, 2022-12-09)"
   xmlns:inkscape="http://www.inkscape.org/namespaces/inkscape"
   xmlns:sodipodi="http://sodipodi.sourceforge.net/DTD/sodipodi-0.dtd"
   xmlns="http://www.w3.org/2000/svg"
   xmlns:svg="http://www.w3.org/2000/svg">
  <defs
     id="defs27" />
  <sodipodi:namedview
     id="namedview25"
     pagecolor="#ffffff"
     bordercolor="#000000"
     borderopacity="0.25"
     inkscape:showpageshadow="2"
     inkscape:pageopacity="0.0"
     inkscape:pagecheckerboard="0"
     inkscape:deskcolor="#d1d1d1"
     inkscape:document-units="pt"
     showgrid="false"
     inkscape:zoom="14.197674"
     inkscape:cx="31.307945"
     inkscape:cy="28.596233"
     inkscape:window-width="1920"
     inkscape:window-height="1017"
     inkscape:window-x="-8"
     inkscape:window-y="-8"
     inkscape:window-maximized="1"
     inkscape:current-layer="svg23" />
  <g
     transform="translate(0.000000,43.000000) scale(0.100000,-0.100000)"
     fill="#000000"
     stroke="none"
     id="g21">
    <path
       d="M133 401 c-44 -21 -64 -37 -68 -54 -4 -16 -13 -23 -28 -23 -21 1 -22 -3 -22 -87 0 -48 -3 -87 -7 -87 -5 0 -8 -29 -8 -63 0 -59 2 -65 25 -75 37 -17 382 -16 415 1 25 13 25 13 25 162 0 148 0 150 -22 149 -15 0 -24 7 -28 23 -8 33 -114 83 -175 83 -29 0 -67 -10 -107 -29z m208 -7 c68 -31 79 -52 79 -155 l0 -69 -180 0 -180 0 0 69 c0 102 11 124 78 155 74 33 128 33 203 0z m-291 -154 c0 -64 -3 -80 -15 -80 -12 0 -15 16 -15 80 0 64 3 80 15 80 12 0 15 -16 15 -80z m410 0 c0 -64 -3 -80 -15 -80 -12 0 -15 16 -15 80 0 64 3 80 15 80 12 0 15 -16 15 -80z m-19 -90 c15 -9 19 -22 19 -66 0 -49 -2 -55 -26 -64 -34 -13 -380 -13 -405 0 -15 9 -19 22 -19 66 0 47 3 56 22 64 32 12 385 12 409 0z"
       id="path19" />
  </g>
  <path
     style="fill:#333333;stroke-width:0.0704341"
     d="m 8.0647011,28.254389 c 0,-3.500177 0.032194,-7.010435 0.071543,-7.800574 0.3804771,-7.640147 1.8461033,-10.7423485 6.4224169,-13.5939358 1.774949,-1.1060048 5.4416,-2.7860769 7.961582,-3.648024 5.639097,-1.9288254 10.65912,-2.1684526 16.148062,-0.7708158 2.324023,0.5917607 5.112994,1.61422 7.62437,2.7951555 7.435971,3.4966501 9.199998,6.4056761 9.595391,15.8235921 0.03903,0.92973 0.07116,4.360749 0.07139,7.624488 l 4.17e-4,5.934071 H 32.012285 8.0647011 Z"
     id="path271"
     transform="scale(0.75)" />
  <path
     style="fill:#333333;stroke-width:0.0704341"
     d="m 58.789884,35.83814 c -1.078037,-0.531235 -1.417321,-3.028745 -1.419168,-10.446658 -0.0017,-6.746913 0.287813,-9.47876 1.092239,-10.307052 0.449933,-0.463281 1.163079,-0.506559 1.627527,-0.09877 0.723799,0.635505 1.014535,2.198988 1.15046,6.186812 0.123942,3.636244 0.0581,8.926249 -0.137544,11.051114 -0.201209,2.185298 -0.565401,3.268787 -1.209115,3.597185 -0.323948,0.165266 -0.789416,0.172586 -1.104399,0.01737 z"
     id="path273"
     transform="scale(0.75)" />
  <path
     style="fill:#333333;stroke-width:0.0704341"
     d="M 24.018018,55.890111 C 19.782074,55.840549 19.01064,55.8223 14.896806,55.67434 10.611034,55.520195 6.9423383,55.25229 5.2254193,54.96809 4.1963883,54.797755 3.694462,54.577564 3.0971175,54.034423 1.710131,52.773291 1.3045706,50.564338 1.3945037,44.760852 c 0.04141,-2.672238 0.1029991,-3.498601 0.3359661,-4.507781 0.2894378,-1.253802 0.8730016,-2.03289 1.9364144,-2.585212 0.6448095,-0.334905 1.0976075,-0.461967 2.1791436,-0.611501 8.0212222,-1.10902 40.7315732,-1.201766 50.5012282,-0.14319 2.101765,0.227734 2.575886,0.399933 3.40295,1.235938 0.670568,0.677818 1.155216,1.931694 1.344095,3.47743 0.228671,1.871392 0.274814,7.049121 0.07846,8.804258 -0.265907,2.376871 -0.840254,3.181944 -2.853352,3.9996 -0.834369,0.338894 -1.273399,0.442788 -2.576347,0.609678 -5.052966,0.647218 -18.428817,1.00561 -31.725045,0.850039 z"
     id="path275"
     transform="scale(0.75)" />
  <path
     style="fill:#808080;stroke-width:0.0704341"
     d="M 4.1908633,35.877464 C 2.9934678,35.399997 2.6520836,32.621284 2.7343302,24.021941 c 0.04715,-4.929738 0.1311939,-6.26767 0.4825097,-7.681237 0.3160726,-1.27176 0.9382711,-1.82155 1.7911982,-1.582745 0.9143876,0.256013 1.3124946,1.534284 1.5019942,4.822713 0.1219405,2.116059 0.1601974,6.333068 0.082821,9.129206 -0.1173582,4.240941 -0.3409132,5.846561 -0.9366303,6.72708 -0.2907833,0.429801 -0.9757905,0.635723 -1.4653597,0.440506 z"
     id="path277"
     transform="scale(0.75)" />
  <path
     style="fill:#808080;stroke-width:0.0704341"
     d="M 8.0947732,27.803849 C 8.1205411,24.055876 8.172597,20.482228 8.2104531,19.862408 8.5447563,14.388839 9.477621,11.50661 11.646141,9.2473208 12.913872,7.9265254 14.238819,7.002118 16.512337,5.8522048 21.111574,3.525976 24.870872,2.2856119 28.948403,1.7489778 c 1.260425,-0.1658815 4.482048,-0.168056 5.775594,-0.0039 4.002714,0.5079655 8.053262,1.8019845 12.396396,3.9602489 3.039374,1.5103774 4.749515,2.7684322 5.975329,4.3957123 1.550434,2.058218 2.261219,4.419777 2.619996,8.704856 0.127838,1.526834 0.163116,3.321845 0.204521,10.406634 l 0.03159,5.405815 H 31.999877 8.0479224 Z"
     id="path348"
     transform="scale(0.75)" />
  <path
     style="fill:#808080;stroke-width:0.0704341"
     d="m 58.706798,35.73187 c -0.689623,-0.466137 -1.022002,-1.876418 -1.200342,-5.093049 -0.102475,-1.848283 -0.05305,-10.57959 0.06718,-11.868141 0.11467,-1.228946 0.323277,-2.435927 0.506134,-2.928446 0.484177,-1.304113 1.768205,-1.464889 2.360732,-0.295593 0.63874,1.260493 0.843281,4.174792 0.779814,11.110791 -0.03946,4.311908 -0.08302,5.282712 -0.300363,6.6931 -0.174986,1.135534 -0.40646,1.790963 -0.767427,2.173008 -0.287399,0.30418 -0.323745,0.320997 -0.750617,0.347309 -0.382722,0.02359 -0.484793,0.0032 -0.695113,-0.138979 z"
     id="path350"
     transform="scale(0.75)" />
  <path
     style="fill:#4d4d4d;stroke-width:0.0704341"
     d="M 21.02457,55.820099 C 12.989255,55.663212 6.3621114,55.24905 4.5940775,54.79328 3.2640863,54.45043 2.2758598,53.330166 1.8645987,51.699114 1.5214798,50.338312 1.4797075,49.689013 1.4794021,45.711712 c -2.082e-4,-2.711536 0.024986,-3.906463 0.092072,-4.366913 0.294168,-2.019038 0.8376657,-2.954233 2.0955377,-3.605787 0.680734,-0.352607 1.0946326,-0.478577 2.0266424,-0.61681 2.084703,-0.309197 5.2218208,-0.49993 12.3374678,-0.750103 3.304327,-0.116175 20.10944,-0.164076 24.448186,-0.06969 8.397431,0.182685 13.768479,0.491442 15.515892,0.891936 1.269926,0.291058 2.201752,1.248233 2.685576,2.75863 0.452324,1.412063 0.596314,3.419084 0.542007,7.554803 -0.03736,2.845082 -0.09986,3.55132 -0.399839,4.51834 -0.370419,1.194077 -1.293007,1.967012 -3.053096,2.557854 -1.64553,0.552387 -6.135256,0.894548 -15.333321,1.168552 -3.143738,0.09365 -17.720295,0.13965 -21.411957,0.06757 z"
     id="path352"
     transform="scale(0.75)" />
  <path
     style="fill:#4d4d4d;stroke-width:0.0704341"
     d="M 8.1074166,30.05774 C 8.1612323,23.386319 8.25421,19.323832 8.3810565,18.101556 c 0.4678128,-4.50778 1.3848249,-6.870822 3.4868895,-8.9853384 1.357036,-1.3650754 2.647449,-2.2291214 5.247533,-3.5136894 4.630103,-2.2874961 8.840112,-3.5778751 12.678133,-3.885882 1.431258,-0.1148606 4.312663,-0.037055 5.564291,0.1502499 3.741973,0.5599839 7.405179,1.7624951 11.480754,3.7687574 2.776395,1.3667221 3.987621,2.1573977 5.285531,3.4503416 2.328435,2.3195249 3.289098,5.1845119 3.625263,10.8116299 0.03819,0.639189 0.0904,4.212838 0.116043,7.941441 l 0.04661,6.77928 H 31.991368 8.070628 Z"
     id="path423"
     transform="scale(0.75)" />
  <path
     style="fill:#4d4d4d;stroke-width:0.0704341"
     d="M 4.0449582,35.726354 C 3.3416316,35.252382 3.0198172,33.92307 2.8472478,30.778994 2.7486056,28.981813 2.803479,19.717852 2.9202047,18.462116 3.1778888,15.689948 3.7883356,14.572258 4.927955,14.786052 c 1.2680307,0.237884 1.6580814,2.709783 1.6568011,10.499779 -6.551e-4,3.966237 -0.1299724,6.939127 -0.3630695,8.346438 -0.1937455,1.169728 -0.5863019,1.946498 -1.0900777,2.156989 -0.3566141,0.149003 -0.8112554,0.122685 -1.0866507,-0.0629 z"
     id="path425"
     transform="scale(0.75)" />
  <path
     style="fill:#4d4d4d;stroke-width:0.0704341"
     d="m 58.688363,35.666148 c -0.598984,-0.446846 -0.91948,-1.748167 -1.112609,-4.517561 -0.05878,-0.84291 -0.06888,-2.787248 -0.0353,-6.796888 0.05132,-6.12767 0.05429,-6.28536 0.118344,-6.28536 0.02405,0 0.06564,-0.198096 0.09242,-0.440213 0.209758,-1.896201 0.727613,-2.800252 1.603593,-2.799491 0.938668,8.16e-4 1.356793,0.910801 1.682777,3.662308 0.09149,0.772254 0.148299,13.06771 0.06117,13.240446 -0.02963,0.05875 -0.08698,0.440707 -0.127444,0.848802 -0.154183,1.555005 -0.423373,2.443841 -0.886528,2.927217 -0.291726,0.304462 -0.305869,0.310275 -0.749623,0.308085 -0.344365,-0.0017 -0.498701,-0.03686 -0.646806,-0.147345 z"
     id="path427"
     transform="scale(0.75)" />
  <path
     style="fill:#4d4d4d;stroke-width:0.0704341"
     d="m 23.043676,55.843411 c -0.0065,-0.0059 -0.946747,-0.03057 -2.089539,-0.05471 -4.167346,-0.08805 -7.576442,-0.221968 -11.1638009,-0.438538 -0.919259,-0.0555 -2.8840912,-0.237301 -3.6843261,-0.34091 -0.4380909,-0.05672 -0.8184349,-0.09872 -0.8452088,-0.09333 -0.026774,0.0054 -0.096223,-0.0083 -0.1543309,-0.03033 -0.058108,-0.02207 -0.2598112,-0.07601 -0.448229,-0.119866 C 3.7728557,54.559657 2.8913158,53.863599 2.4068811,52.988065 1.958834,52.178295 1.6208159,50.786661 1.5547809,49.479936 c -0.059882,-1.184973 -0.040476,-7.024506 0.025779,-7.757092 0.1518258,-1.67875 0.6115956,-2.84634 1.3627308,-3.460669 0.8353223,-0.683183 1.9308175,-1.065476 3.4662097,-1.209598 0.1936937,-0.01818 0.8751433,-0.08252 1.5143326,-0.14297 1.2900761,-0.122011 1.7617688,-0.152939 3.20475,-0.210127 0.542343,-0.0215 1.144554,-0.05516 1.338248,-0.07481 0.193694,-0.01965 0.748362,-0.04847 1.232596,-0.06404 0.484234,-0.01557 1.340008,-0.0464 1.90172,-0.06853 3.929159,-0.15475 5.708375,-0.173608 16.587224,-0.175803 10.380994,-0.0021 11.411731,0.0093 16.094186,0.178089 2.317605,0.08354 2.690157,0.09996 3.768223,0.166147 0.619819,0.03805 1.190335,0.06701 1.267813,0.06436 0.07748,-0.0026 0.521212,0.02686 0.986077,0.06557 0.464865,0.03871 0.892752,0.07064 0.95086,0.07095 0.274422,0.0015 2.131398,0.242807 2.557402,0.332388 0.733519,0.154244 1.221546,0.418258 1.754768,0.949299 0.533247,0.531065 0.941852,1.277453 1.157401,2.114193 0.06926,0.268846 0.152467,0.488811 0.184912,0.488811 0.03245,0 0.04224,0.0271 0.02177,0.06023 -0.02047,0.03312 0.01485,0.405545 0.0785,0.8276 0.09532,0.632091 0.118623,1.481221 0.132169,4.81659 0.009,2.227069 -0.01022,4.09905 -0.04282,4.159959 -0.0326,0.06091 -0.07337,0.267262 -0.09061,0.458564 -0.01724,0.191302 -0.04855,0.395365 -0.06959,0.453473 -0.02103,0.05811 -0.09295,0.279975 -0.159806,0.493039 -0.163507,0.521045 -0.494335,1.024546 -0.931353,1.417462 -0.612132,0.55036 -1.880077,1.129376 -2.902322,1.325366 -0.251802,0.04828 -0.505365,0.103638 -0.563473,0.123025 -0.05811,0.01939 -0.232432,0.04619 -0.387387,0.05955 -0.154955,0.01337 -0.709624,0.07328 -1.232597,0.133149 -1.292023,0.1479 -1.567766,0.16771 -4.91608,0.353192 -1.057447,0.05858 -2.341108,0.121453 -2.852579,0.13972 -0.511472,0.01827 -1.389531,0.05036 -1.951243,0.07132 -2.214916,0.08264 -3.784482,0.119668 -5.740377,0.135408 -3.208631,0.02582 -16.245488,0.08167 -16.258536,0.06966 z"
     id="path266"
     transform="scale(0.75)" />
  <path
     style="fill:#b3b3b3;stroke-width:0.0704341"
     d="m 23.043676,55.844152 c -0.0065,-0.0055 -1.010137,-0.0306 -2.230408,-0.0557 -3.698238,-0.07606 -5.837777,-0.156401 -9.719902,-0.365003 -0.445495,-0.02394 -1.031859,-0.05485 -1.3030299,-0.06869 -0.715575,-0.03652 -3.5173174,-0.303792 -4.0296095,-0.384397 -0.2406095,-0.03786 -0.4624768,-0.06339 -0.4930385,-0.05674 -0.030562,0.0067 -0.1031097,-0.006 -0.1612178,-0.02804 -0.058108,-0.02207 -0.2598112,-0.07601 -0.448229,-0.119866 C 3.7726468,54.559609 2.8922377,53.867579 2.4139493,53.00164 1.9702335,52.198293 1.6226404,50.800493 1.5552401,49.548454 1.4949357,48.428228 1.5153475,42.364191 1.5817247,41.680266 1.7460348,39.98728 2.2116621,38.841519 2.9839932,38.22973 3.1635177,38.087523 3.3500206,37.923873 3.398444,37.866064 c 0.048423,-0.05781 0.088043,-0.08267 0.088043,-0.05524 0,0.02743 0.1505528,-0.02552 0.3345618,-0.117666 0.6196857,-0.310308 1.6268707,-0.561635 2.5884522,-0.645906 0.721807,-0.06326 1.9840088,-0.180204 2.3327561,-0.216136 0.4529432,-0.04667 1.0615569,-0.08123 2.3158919,-0.131525 0.542343,-0.02175 1.160402,-0.05602 1.373465,-0.07616 0.213063,-0.02014 0.783579,-0.05063 1.267813,-0.06777 0.484234,-0.01713 1.324161,-0.04793 1.866503,-0.06845 4.092387,-0.154803 6.03651,-0.175125 16.622441,-0.173756 9.400987,0.0012 11.146209,0.01426 13.910729,0.103942 3.110865,0.100923 4.683442,0.163476 6.022114,0.239543 0.619819,0.03522 1.174488,0.06273 1.232596,0.06114 0.05811,-0.0016 0.485995,0.02946 0.95086,0.069 0.464865,0.03955 0.892752,0.0714 0.95086,0.07079 0.244112,-0.0026 2.116435,0.241345 2.569179,0.334707 1.380154,0.284608 2.371931,1.298977 2.857556,2.922655 0.0864,0.288872 0.184114,0.559833 0.217146,0.602136 0.03303,0.0423 0.04658,0.09039 0.03011,0.106862 -0.01647,0.01647 0.02024,0.362202 0.08157,0.768294 0.08972,0.594058 0.115523,1.533539 0.132012,4.807444 0.01162,2.306849 -0.0072,4.152319 -0.04335,4.261261 -0.03511,0.105691 -0.07642,0.318947 -0.09178,0.473902 -0.01536,0.154955 -0.04568,0.329279 -0.06736,0.387387 -0.02168,0.05811 -0.09413,0.279975 -0.160987,0.493039 -0.231907,0.739016 -0.806773,1.43752 -1.548701,1.881783 -0.523526,0.313486 -1.536531,0.701042 -2.179681,0.833904 -0.309713,0.06398 -0.610658,0.133912 -0.668766,0.155401 -0.05811,0.02149 -0.12315,0.03613 -0.144536,0.03254 -0.02139,-0.0036 -0.576055,0.05566 -1.232597,0.131675 -1.197004,0.138591 -1.555531,0.171178 -2.602392,0.236533 -1.251604,0.07814 -4.493778,0.249183 -5.35299,0.282405 -5.201019,0.201103 -7.295378,0.233691 -16.892443,0.262845 -3.906158,0.01187 -7.107386,0.01704 -7.113841,0.01151 z"
     id="path268"
     transform="scale(0.75)" />
  <path
     style="fill:#808080;stroke-width:0.0704341"
     d="M 19.897625,55.742434 C 11.856989,55.531689 5.795678,55.109993 4.5005014,54.671228 2.9236453,54.137039 2.0510323,52.819718 1.6915774,50.430796 1.6069737,49.868524 1.5855133,48.935452 1.5851818,45.804852 c -4.233e-4,-3.998212 0.026379,-4.519748 0.2840485,-5.527226 0.2214572,-0.86589 0.5211605,-1.40974 1.0624449,-1.927944 0.4057739,-0.388471 0.5809993,-0.498937 1.1336826,-0.7147 0.3595488,-0.140365 0.8777571,-0.305083 1.151574,-0.36604 0.6223055,-0.138539 2.8915901,-0.367388 4.6086213,-0.464763 0.7166669,-0.04064 1.8418509,-0.10519 2.5004099,-0.143438 3.789733,-0.220102 5.874284,-0.246326 19.580672,-0.246326 13.830212,0 14.616924,0.01 19.686323,0.250014 3.236446,0.153237 5.838766,0.418796 6.607126,0.674238 1.158884,0.385271 1.919488,1.25137 2.453827,2.794164 0.360863,1.04192 0.390921,1.45724 0.429259,5.931052 0.03823,4.461757 0.02001,4.80412 -0.310297,5.828619 -0.592067,1.836398 -2.351985,2.763792 -5.975165,3.148629 -1.837375,0.195158 -5.519016,0.41158 -9.684685,0.569305 -4.556527,0.172525 -20.487355,0.25592 -25.215398,0.131998 z"
     id="path339"
     transform="scale(0.75)" />
  <path
     style="fill:#666666;stroke-width:0.0704341"
     d="m 20.320182,55.734726 c -0.174298,-0.02698 -0.814402,-0.04783 -1.422454,-0.04633 -0.608053,0.0015 -1.131026,-0.01291 -1.162162,-0.03202 -0.03114,-0.01911 -0.872554,-0.04581 -1.869814,-0.05932 -0.997259,-0.01351 -1.813414,-0.04834 -1.813677,-0.0774 -8.66e-4,-0.09597 -1.323371,-0.06178 -1.362512,0.03522 -0.02301,0.05702 -0.03749,0.04843 -0.04109,-0.02439 -0.0047,-0.09556 -0.16673,-0.119678 -1.079681,-0.160729 C 9.0844212,55.258047 5.6956635,54.932014 4.859951,54.724298 3.1070913,54.288626 2.0823055,52.874634 1.7227268,50.395579 1.6166286,49.664102 1.616288,42.031726 1.7223193,41.260776 1.9433122,39.653943 2.493058,38.613025 3.4579086,37.974517 c 0.9050232,-0.598916 3.1036115,-0.979951 6.6104424,-1.145649 0.868509,-0.04104 1.025864,-0.06562 1.030576,-0.161008 0.0036,-0.07283 0.0181,-0.08149 0.04109,-0.02453 0.03738,0.09263 1.084499,0.130799 1.172555,0.04274 0.02492,-0.02492 0.315317,-0.03881 0.645337,-0.03087 0.330019,0.0079 0.631287,-0.0049 0.669483,-0.02849 0.167629,-0.103601 5.897871,-0.140943 19.687928,-0.128298 8.814762,0.0081 15.331876,0.04226 16.129403,0.08459 0.736036,0.03907 1.988002,0.105816 2.782146,0.148329 2.915249,0.156063 5.279363,0.420617 6.027002,0.674447 1.086045,0.368722 1.925988,1.380119 2.423107,2.917726 0.295806,0.914935 0.316132,1.304908 0.317564,6.092547 0.0012,4.159717 -0.01001,4.620064 -0.123073,5.036036 -0.36611,1.346924 -1.112771,2.175115 -2.490777,2.762753 -0.595085,0.253769 -1.969395,0.590184 -2.849753,0.697586 -0.403275,0.0492 -0.749074,0.106904 -0.768444,0.128234 -0.01937,0.02133 -0.241236,0.04382 -0.493038,0.04999 -0.251802,0.0062 -1.170967,0.06112 -2.042588,0.12213 -0.871622,0.06101 -2.068121,0.132154 -2.658886,0.1581 -0.590766,0.02595 -1.074054,0.06607 -1.073972,0.08917 7e-5,0.0231 -0.198015,0.03248 -0.440213,0.02086 -0.242199,-0.01163 -1.026725,0.0084 -1.743391,0.04443 -0.716667,0.03606 -2.238043,0.08906 -3.380836,0.117782 -2.908362,0.07308 -22.223518,0.151337 -22.609385,0.0916 z"
     id="path410"
     transform="scale(0.75)" />
  <path
     style="fill:#666666;stroke-width:0.0704341"
     d="m 8.1357453,31.712941 c 7.689e-4,-3.663367 0.1201785,-10.745534 0.2093074,-12.414005 0.1852814,-3.46842 0.8127863,-6.115789 1.9000463,-8.016075 0.928487,-1.6227857 2.612558,-3.2387943 4.610208,-4.4238842 2.280973,-1.353169 6.157326,-3.0600758 8.768229,-3.8609872 3.039503,-0.932387 5.187529,-1.2721286 8.04396,-1.2722694 2.828798,-1.394e-4 4.216998,0.166337 6.859942,0.8226606 2.775838,0.6893255 5.505337,1.7365784 8.733239,3.350765 2.428387,1.2143704 3.646508,2.029997 4.866333,3.2583859 1.490947,1.5014163 2.407502,3.2667503 2.94324,5.6688403 0.596125,2.672845 0.694705,4.543752 0.780287,14.808764 l 0.04155,4.983211 H 32.01361 8.1351354 Z"
     id="path481"
     transform="scale(0.75)" />
  <path
     style="fill:#666666;stroke-width:0.0704341"
     d="M 4.0427667,35.655009 C 3.5372989,35.31557 3.2458844,34.442979 3.0144062,32.575759 2.9009824,31.660825 2.8878913,30.894296 2.8887024,25.215398 c 6.828e-4,-4.780089 0.023484,-6.520947 0.092715,-7.078624 0.2022495,-1.629185 0.5260503,-2.635667 0.9746516,-3.029544 0.2874178,-0.252356 0.4915222,-0.309915 0.9256818,-0.261049 0.8241861,0.09276 1.2584438,1.241104 1.4974124,3.959716 0.1875936,2.134148 0.1877164,10.524944 1.902e-4,13.030304 -0.1716338,2.293042 -0.5204997,3.455827 -1.1524433,3.841143 -0.3226238,0.196714 -0.8734241,0.186325 -1.1841443,-0.02233 z"
     id="path483"
     transform="scale(0.75)" />
  <path
     style="fill:#666666;stroke-width:0.0704341"
     d="m 58.678747,35.597475 c -0.410203,-0.322665 -0.701958,-1.213851 -0.931599,-2.845631 -0.101246,-0.719431 -0.122939,-1.668009 -0.145779,-6.374284 -0.03469,-7.147553 0.04526,-8.836653 0.484442,-10.235813 0.296219,-0.943692 0.699019,-1.285009 1.478402,-1.252737 0.450909,0.01867 0.88138,0.65583 1.111975,1.645887 0.368276,1.58119 0.37505,1.73541 0.382862,8.715718 0.0067,5.952112 -0.0039,6.596812 -0.121834,7.460068 -0.215639,1.578021 -0.434728,2.256332 -0.899898,2.786131 -0.209263,0.238338 -0.237601,0.248478 -0.69441,0.248478 -0.377054,0 -0.515381,-0.03079 -0.664161,-0.147817 z"
     id="path485"
     transform="scale(0.75)" />
</svg>
