<?xml version="1.0" standalone="no"?>
<!DOCTYPE svg PUBLIC "-//W3C//DTD SVG 20010904//EN"
 "http://www.w3.org/TR/2001/REC-SVG-20010904/DTD/svg10.dtd">
<svg version="1.0" xmlns="http://www.w3.org/2000/svg"
 width="47.000000pt" height="43.000000pt" viewBox="0 0 47.000000 43.000000"
 preserveAspectRatio="xMidYMid meet">

<g transform="translate(0.000000,43.000000) scale(0.100000,-0.100000)"
fill="#FF6600" stroke="none">
<path d="M133 401 c-44 -21 -64 -37 -68 -54 -4 -16 -13 -23 -28 -23 -21 1 -22
-3 -22 -87 0 -48 -3 -87 -7 -87 -5 0 -8 -29 -8 -63 0 -59 2 -65 25 -75 37 -17
382 -16 415 1 25 13 25 13 25 162 0 148 0 150 -22 149 -15 0 -24 7 -28 23 -8
33 -114 83 -175 83 -29 0 -67 -10 -107 -29z m208 -7 c68 -31 79 -52 79 -155
l0 -69 -180 0 -180 0 0 69 c0 102 11 124 78 155 74 33 128 33 203 0z m-291
-154 c0 -64 -3 -80 -15 -80 -12 0 -15 16 -15 80 0 64 3 80 15 80 12 0 15 -16
15 -80z m410 0 c0 -64 -3 -80 -15 -80 -12 0 -15 16 -15 80 0 64 3 80 15 80 12
0 15 -16 15 -80z m-19 -90 c15 -9 19 -22 19 -66 0 -49 -2 -55 -26 -64 -34 -13
-380 -13 -405 0 -15 9 -19 22 -19 66 0 47 3 56 22 64 32 12 385 12 409 0z"/>
</g>
</svg>
