<?xml version="1.0" encoding="UTF-8" standalone="no"?>
<svg
   version="1.0"
   width="47.000000pt"
   height="43.000000pt"
   viewBox="0 0 47.000000 43.000000"
   preserveAspectRatio="xMidYMid meet"
   id="svg6"
   sodipodi:docname="seatWaiting.svg"
   xml:space="preserve"
   inkscape:version="1.2.2 (732a01da63, 2022-12-09)"
   xmlns:inkscape="http://www.inkscape.org/namespaces/inkscape"
   xmlns:sodipodi="http://sodipodi.sourceforge.net/DTD/sodipodi-0.dtd"
   xmlns="http://www.w3.org/2000/svg"
   xmlns:svg="http://www.w3.org/2000/svg"><defs
     id="defs10" /><sodipodi:namedview
     id="namedview8"
     pagecolor="#ffffff"
     bordercolor="#000000"
     borderopacity="0.25"
     inkscape:showpageshadow="2"
     inkscape:pageopacity="0.0"
     inkscape:pagecheckerboard="0"
     inkscape:deskcolor="#d1d1d1"
     inkscape:document-units="pt"
     showgrid="false"
     inkscape:zoom="7.2994186"
     inkscape:cx="57.470331"
     inkscape:cy="24.248507"
     inkscape:window-width="1920"
     inkscape:window-height="1017"
     inkscape:window-x="-8"
     inkscape:window-y="-8"
     inkscape:window-maximized="1"
     inkscape:current-layer="svg6" /><g
     transform="translate(0.000000,43.000000) scale(0.100000,-0.100000)"
     fill="#000000"
     stroke="none"
     id="g4"
     style="fill:#cccccc"><path
       d="M133 401 c-44 -21 -64 -37 -68 -54 -4 -16 -13 -23 -28 -23 -21 1 -22 -3 -22 -87 0 -48 -3 -87 -7 -87 -5 0 -8 -29 -8 -63 0 -59 2 -65 25 -75 37 -17 382 -16 415 1 25 13 25 13 25 162 0 148 0 150 -22 149 -15 0 -24 7 -28 23 -8 33 -114 83 -175 83 -29 0 -67 -10 -107 -29z m208 -7 c68 -31 79 -52 79 -155 l0 -69 -180 0 -180 0 0 69 c0 102 11 124 78 155 74 33 128 33 203 0z m-291 -154 c0 -64 -3 -80 -15 -80 -12 0 -15 16 -15 80 0 64 3 80 15 80 12 0 15 -16 15 -80z m410 0 c0 -64 -3 -80 -15 -80 -12 0 -15 16 -15 80 0 64 3 80 15 80 12 0 15 -16 15 -80z m-19 -90 c15 -9 19 -22 19 -66 0 -49 -2 -55 -26 -64 -34 -13 -380 -13 -405 0 -15 9 -19 22 -19 66 0 47 3 56 22 64 32 12 385 12 409 0z"
       id="path2"
       style="fill:#cccccc" /></g><g
     style="overflow:hidden;fill:#00ff00"
     id="g276"
     transform="matrix(0.04140325,0,0,0.0393635,2.7460166,0.62177448)"><path
       d="m 589.94,931.646 c 8.6,-1.637 17.196,-3.274 25.382,-5.322 5.325,-1.229 10.236,-4.911 13.103,-9.413 2.867,-4.916 3.688,-10.647 2.457,-15.97 -2.457,-9.416 -10.645,-15.968 -20.471,-15.968 -1.639,0 -3.276,0.409 -4.913,0.819 -7.776,2.047 -15.146,3.686 -22.928,4.915 -11.462,2.044 -18.832,13.1 -16.782,24.562 0.817,5.321 4.093,10.232 8.595,13.511 3.686,2.456 7.781,3.684 11.875,3.684 1.227,-0.407 2.453,-0.407 3.682,-0.818 z M 896.992,407.202 c 2.045,0 4.503,-0.41 6.547,-1.229 11.056,-3.685 17.196,-15.559 13.512,-26.612 -2.864,-8.188 -5.729,-16.375 -9.006,-24.563 -3.275,-8.188 -11.053,-13.101 -19.649,-13.101 -2.865,0 -5.322,0.41 -7.78,1.639 -5.32,2.045 -9.415,6.141 -11.463,11.053 -2.047,4.913 -2.457,11.053 0,15.966 2.865,7.369 5.731,14.739 8.188,22.108 1.229,4.093 4.095,7.779 7.777,10.646 3.278,2.866 7.37,4.093 11.874,4.093 z M 715.22,884.562 c 3.683,0 7.366,-0.817 10.644,-2.862 7.369,-4.503 15.146,-9.009 22.105,-13.513 4.505,-3.274 7.779,-7.777 9.008,-13.51 1.228,-5.32 0,-11.054 -2.864,-15.967 -4.097,-5.73 -10.646,-9.416 -17.605,-9.416 -4.094,0 -8.188,1.229 -11.462,3.686 -6.552,4.503 -13.103,8.598 -20.062,12.28 -10.236,5.733 -13.51,18.835 -7.779,28.659 1.64,2.867 3.685,4.911 6.143,6.55 3.27,2.459 7.365,4.093 11.872,4.093 z M 905.179,539.439 c 3.275,2.455 7.369,3.685 11.466,3.685 h 0.406 c 11.466,0 20.883,-9.416 20.883,-20.472 0,-8.597 0,-17.194 -0.411,-25.792 -0.408,-11.462 -9.825,-20.062 -20.878,-20.062 h -0.819 c -11.466,0.409 -20.471,10.236 -20.061,21.698 0.409,7.779 0.409,15.558 0,23.337 0.409,6.961 3.685,13.511 9.414,17.606 z m -56.088,199.787 c -3.684,-2.863 -8.188,-4.092 -12.69,-4.092 -6.551,0 -12.691,3.275 -16.784,8.598 -4.505,6.142 -9.417,12.281 -14.738,18.424 -7.368,9.008 -6.552,22.107 2.456,29.479 0.407,0.407 0.817,0.815 1.638,1.226 3.686,2.458 7.778,3.687 12.282,3.687 6.14,0 11.874,-2.867 15.967,-7.369 5.73,-6.551 11.052,-13.511 16.374,-20.47 6.55,-9.013 4.504,-22.521 -4.505,-29.483 z m 56.088,-125.684 c -2.046,-0.819 -4.093,-0.819 -6.142,-0.819 -9.414,0 -17.194,5.731 -20.062,14.736 -2.455,7.37 -4.912,14.739 -7.776,22.109 -3.274,9.008 -0.408,19.24 7.368,24.562 1.229,0.818 2.866,1.639 4.505,2.456 2.453,0.819 4.911,1.23 7.369,1.23 8.596,0 16.375,-5.322 19.65,-13.513 2.866,-7.778 5.731,-15.968 8.597,-24.562 3.687,-10.643 -2.454,-22.515 -13.509,-26.199 z M 819.206,238.937 c 2.047,0 4.094,-1.226 4.909,-2.455 0.819,-1.229 1.229,-3.276 0.409,-5.322 l -30.702,-110.54 -32.343,46.672 -11.872,-7.779 C 679.19,112.434 597.72,87.458 513.382,87.458 c -24.563,0 -49.129,2.048 -73.692,6.55 -10.646,2.048 -21.699,4.095 -32.342,6.96 l -1.229,0.41 C 311.548,125.533 230.484,179.983 171.943,258.18 l -0.818,1.226 c 0,0.41 -0.41,0.41 -0.41,0.819 -2.048,2.867 -4.096,5.322 -5.731,8.188 -3.276,4.503 -6.141,9.008 -9.008,13.511 l -0.819,1.637 c -48.307,74.51 -71.235,160.485 -67.551,248.916 0,0.41 0,0.819 0,1.229 0.408,8.187 1.229,16.785 2.047,25.383 l 0.41,1.639 c 0.819,9.006 2.048,17.604 3.687,25.792 15.146,87.61 56.497,167.033 119.136,228.854 v 0 l 0.41,0.41 c 16.785,16.375 35.207,31.933 54.449,45.442 51.177,36.025 108.492,60.184 169.493,70.827 1.229,0.408 2.455,0.408 3.685,0.408 10.235,0 18.832,-7.369 20.47,-17.193 0.818,-5.73 -0.409,-11.056 -3.276,-15.559 -3.273,-4.503 -8.187,-7.78 -13.511,-8.598 -32.752,-5.732 -64.275,-15.967 -94.163,-29.887 l -0.407,-0.409 c -0.41,0 -0.41,-0.409 -0.818,-0.409 -6.959,-3.273 -13.92,-6.55 -20.062,-10.234 v 0 h -0.41 l -2.048,-1.229 C 314.826,842.392 303.364,835.024 292.311,827.244 208.791,768.29 153.113,680.267 135.508,579.148 117.904,478.024 140.83,376.494 199.786,292.975 c 25.793,-36.846 57.723,-68.369 94.16,-93.754 l 1.229,-0.816 c 64.685,-44.627 140.016,-67.962 218.621,-67.962 75.737,0 149.021,22.109 212.07,64.276 l 12.281,8.188 -32.343,47.081 z m -82.7,425.78 c 5.321,0 10.233,-2.868 12.69,-7.779 3.687,-6.96 0.818,-15.558 -6.141,-19.241 L 505.603,514.877 V 255.724 c 0,-7.778 -6.55,-14.329 -14.33,-14.329 -7.78,0 -14.327,6.55 -14.327,14.329 V 532.07 l 253.008,131.009 c 2.049,1.228 4.095,1.638 6.552,1.638 z"
       id="path267"
       style="fill:#00ff00" /></g></svg>
